<?xml version="1.0" encoding="UTF-8" standalone="no"?>
<!DOCTYPE svg PUBLIC "-//W3C//DTD SVG 1.1//EN" "http://www.w3.org/Graphics/SVG/1.1/DTD/svg11.dtd">
<svg width="100%" height="100%" viewBox="0 0 250 250" version="1.1" xmlns="http://www.w3.org/2000/svg" xmlns:xlink="http://www.w3.org/1999/xlink" xml:space="preserve" xmlns:serif="http://www.serif.com/" style="fill-rule:evenodd;clip-rule:evenodd;stroke-linecap:round;stroke-linejoin:round;stroke-miterlimit:72;">
    <g transform="matrix(6.12323e-17,1,-1,6.12323e-17,167.422,-16.092)">
        <path d="M55.94,12.96L229.42,12.96L229.42,71.884L55.94,71.884L55.94,12.96" style="fill:rgb(112,225,113);fill-rule:nonzero;stroke:black;stroke-width:0.72px;"/>
    </g>
    <g transform="matrix(-1,6.12323e-17,6.12323e-17,1,203.878,11.042)">
        <rect x="73.792" y="45.24" width="0.85" height="3.686"/>
    </g>
    <g transform="matrix(-1,6.12323e-17,6.12323e-17,1,202.46,12.46)">
        <rect x="73.792" y="43.822" width="0.85" height="3.686"/>
    </g>
    <g transform="matrix(-1,6.12323e-17,6.12323e-17,1,201.043,13.8775)">
        <rect x="73.793" y="42.405" width="0.85" height="3.685"/>
    </g>
    <g transform="matrix(-1,6.12323e-17,6.12323e-17,1,199.625,15.2945)">
        <rect x="73.792" y="40.987" width="0.851" height="3.686"/>
    </g>
    <g transform="matrix(-1,6.12323e-17,6.12323e-17,1,198.209,16.712)">
        <rect x="73.792" y="39.571" width="0.851" height="3.685"/>
    </g>
    <g transform="matrix(-1,6.12323e-17,6.12323e-17,1,196.791,18.129)">
        <rect x="73.792" y="38.153" width="0.85" height="3.686"/>
    </g>
    <g transform="matrix(-1,6.12323e-17,6.12323e-17,1,195.375,19.545)">
        <rect x="73.792" y="36.737" width="0.85" height="3.686"/>
    </g>
    <g transform="matrix(-1,6.12323e-17,6.12323e-17,1,193.956,20.9635)">
        <rect x="73.792" y="35.319" width="0.851" height="3.686"/>
    </g>
    <g transform="matrix(-1,6.12323e-17,6.12323e-17,1,208.412,6.5065)">
        <rect x="73.791" y="49.776" width="0.85" height="3.685"/>
    </g>
    <g transform="matrix(-1,6.12323e-17,6.12323e-17,1,207.563,7.3575)">
        <rect x="73.792" y="48.925" width="0.85" height="3.685"/>
    </g>
    <g transform="matrix(-1,6.12323e-17,6.12323e-17,1,206.145,8.774)">
        <rect x="73.791" y="47.508" width="0.851" height="3.685"/>
    </g>
    <g transform="matrix(-1,6.12323e-17,6.12323e-17,1,205.294,9.6245)">
        <rect x="73.791" y="46.658" width="0.85" height="3.685"/>
    </g>
    <g transform="matrix(-1,6.12323e-17,6.12323e-17,1,192.538,22.3805)">
        <rect x="73.791" y="33.902" width="0.85" height="3.685"/>
    </g>
    <g transform="matrix(-1,6.12323e-17,6.12323e-17,1,191.688,23.231)">
        <rect x="73.791" y="33.051" width="0.851" height="3.685"/>
    </g>
    <g transform="matrix(-1,6.12323e-17,6.12323e-17,1,190.272,24.649)">
        <rect x="73.792" y="31.634" width="0.851" height="3.685"/>
    </g>
    <g transform="matrix(-1,6.12323e-17,6.12323e-17,1,189.421,25.4995)">
        <rect x="73.793" y="30.783" width="0.85" height="3.685"/>
    </g>
    <g transform="matrix(6.12323e-17,1,-1,6.12323e-17,141.618,-16.092)">
        <rect x="150.325" y="26.685" width="3.826" height="5.67"/>
    </g>
    <g transform="matrix(6.12323e-17,1,-1,6.12323e-17,141.618,-16.092)">
        <rect x="163.081" y="26.685" width="3.826" height="5.67"/>
    </g>
    <g transform="matrix(6.12323e-17,1,-1,6.12323e-17,193.458,-16.092)">
        <rect x="150.325" y="52.605" width="3.826" height="5.67"/>
    </g>
    <g transform="matrix(6.12323e-17,1,-1,6.12323e-17,193.458,-16.092)">
        <rect x="163.081" y="52.605" width="3.826" height="5.67"/>
    </g>
    <g transform="matrix(1,-6.12323e-17,-6.12323e-17,-1,40.183,60.793)">
        <path d="M59.645,14.975C60.895,14.975 61.905,15.995 61.905,17.245C61.905,18.495 60.895,19.515 59.645,19.515C58.385,19.515 57.375,18.495 57.375,17.245C57.375,15.995 58.385,14.975 59.645,14.975" style="fill-rule:nonzero;"/>
    </g>
    <g transform="matrix(1,-6.12323e-17,-6.12323e-17,-1,40.188,60.798)">
        <path d="M59.64,15.69C60.5,15.69 61.2,16.39 61.2,17.25C61.2,18.11 60.5,18.81 59.64,18.81C58.78,18.81 58.08,18.11 58.08,17.25C58.08,16.39 58.78,15.69 59.64,15.69" style="fill:white;fill-rule:nonzero;"/>
    </g>
    <g transform="matrix(1,-6.12323e-17,-6.12323e-17,-1,32.983,67.993)">
        <path d="M66.845,14.975C68.095,14.975 69.105,15.995 69.105,17.245C69.105,18.495 68.095,19.515 66.845,19.515C65.585,19.515 64.575,18.495 64.575,17.245C64.575,15.995 65.585,14.975 66.845,14.975" style="fill-rule:nonzero;"/>
    </g>
    <g transform="matrix(1,-6.12323e-17,-6.12323e-17,-1,32.988,67.998)">
        <path d="M66.84,15.69C67.7,15.69 68.4,16.39 68.4,17.25C68.4,18.11 67.7,18.81 66.84,18.81C65.98,18.81 65.28,18.11 65.28,17.25C65.28,16.39 65.98,15.69 66.84,15.69" style="fill:white;fill-rule:nonzero;"/>
    </g>
    <g transform="matrix(6.12323e-17,1,-1,6.12323e-17,117.071,-16.092)">
        <rect x="71.771" y="14.979" width="4.535" height="4.535"/>
    </g>
    <g transform="matrix(1,-6.12323e-17,-6.12323e-17,-1,25.788,75.198)">
        <path d="M74.04,15.69C74.9,15.69 75.6,16.39 75.6,17.25C75.6,18.11 74.9,18.81 74.04,18.81C73.18,18.81 72.48,18.11 72.48,17.25C72.48,16.39 73.18,15.69 74.04,15.69" style="fill:white;fill-rule:nonzero;"/>
    </g>
    <g transform="matrix(1,-6.12323e-17,-6.12323e-17,-1,18.583,82.393)">
        <path d="M81.245,14.975C82.495,14.975 83.505,15.995 83.505,17.245C83.505,18.495 82.495,19.515 81.245,19.515C79.985,19.515 78.975,18.495 78.975,17.245C78.975,15.995 79.985,14.975 81.245,14.975" style="fill-rule:nonzero;"/>
    </g>
    <g transform="matrix(1,-6.12323e-17,-6.12323e-17,-1,18.588,82.398)">
        <path d="M81.24,15.69C82.1,15.69 82.8,16.39 82.8,17.25C82.8,18.11 82.1,18.81 81.24,18.81C80.38,18.81 79.68,18.11 79.68,17.25C79.68,16.39 80.38,15.69 81.24,15.69" style="fill:white;fill-rule:nonzero;"/>
    </g>
    <g transform="matrix(1,-6.12323e-17,-6.12323e-17,-1,11.383,89.593)">
        <path d="M88.445,14.975C89.695,14.975 90.705,15.995 90.705,17.245C90.705,18.495 89.695,19.515 88.445,19.515C87.185,19.515 86.175,18.495 86.175,17.245C86.175,15.995 87.185,14.975 88.445,14.975" style="fill-rule:nonzero;"/>
    </g>
    <g transform="matrix(1,-6.12323e-17,-6.12323e-17,-1,11.388,89.598)">
        <path d="M88.44,15.69C89.3,15.69 90,16.39 90,17.25C90,18.11 89.3,18.81 88.44,18.81C87.58,18.81 86.88,18.11 86.88,17.25C86.88,16.39 87.58,15.69 88.44,15.69" style="fill:white;fill-rule:nonzero;"/>
    </g>
    <g transform="matrix(1,-6.12323e-17,-6.12323e-17,-1,4.183,96.793)">
        <path d="M95.645,14.975C96.895,14.975 97.905,15.995 97.905,17.245C97.905,18.495 96.895,19.515 95.645,19.515C94.385,19.515 93.375,18.495 93.375,17.245C93.375,15.995 94.385,14.975 95.645,14.975" style="fill-rule:nonzero;"/>
    </g>
    <g transform="matrix(1,-6.12323e-17,-6.12323e-17,-1,4.188,96.798)">
        <path d="M95.64,15.69C96.5,15.69 97.2,16.39 97.2,17.25C97.2,18.11 96.5,18.81 95.64,18.81C94.78,18.81 94.08,18.11 94.08,17.25C94.08,16.39 94.78,15.69 95.64,15.69" style="fill:white;fill-rule:nonzero;"/>
    </g>
    <g transform="matrix(1,-6.12323e-17,-6.12323e-17,-1,-3.017,103.993)">
        <path d="M102.845,14.975C104.095,14.975 105.105,15.995 105.105,17.245C105.105,18.495 104.095,19.515 102.845,19.515C101.585,19.515 100.575,18.495 100.575,17.245C100.575,15.995 101.585,14.975 102.845,14.975" style="fill-rule:nonzero;"/>
    </g>
    <g transform="matrix(1,-6.12323e-17,-6.12323e-17,-1,-3.012,103.998)">
        <path d="M102.84,15.69C103.7,15.69 104.4,16.39 104.4,17.25C104.4,18.11 103.7,18.81 102.84,18.81C101.98,18.81 101.28,18.11 101.28,17.25C101.28,16.39 101.98,15.69 102.84,15.69" style="fill:white;fill-rule:nonzero;"/>
    </g>
    <g transform="matrix(6.12323e-17,1,-1,6.12323e-17,117.071,-16.092)">
        <rect x="107.771" y="14.979" width="4.535" height="4.535"/>
    </g>
    <g transform="matrix(1,-6.12323e-17,-6.12323e-17,-1,-10.212,111.198)">
        <path d="M110.04,15.69C110.9,15.69 111.6,16.39 111.6,17.25C111.6,18.11 110.9,18.81 110.04,18.81C109.18,18.81 108.48,18.11 108.48,17.25C108.48,16.39 109.18,15.69 110.04,15.69" style="fill:white;fill-rule:nonzero;"/>
    </g>
    <g transform="matrix(1,-6.12323e-17,-6.12323e-17,-1,-17.417,118.393)">
        <path d="M117.245,14.975C118.495,14.975 119.505,15.995 119.505,17.245C119.505,18.495 118.495,19.515 117.245,19.515C115.985,19.515 114.975,18.495 114.975,17.245C114.975,15.995 115.985,14.975 117.245,14.975" style="fill-rule:nonzero;"/>
    </g>
    <g transform="matrix(1,-6.12323e-17,-6.12323e-17,-1,-17.412,118.398)">
        <path d="M117.24,15.69C118.1,15.69 118.8,16.39 118.8,17.25C118.8,18.11 118.1,18.81 117.24,18.81C116.38,18.81 115.68,18.11 115.68,17.25C115.68,16.39 116.38,15.69 117.24,15.69" style="fill:white;fill-rule:nonzero;"/>
    </g>
    <g transform="matrix(1,-6.12323e-17,-6.12323e-17,-1,-24.617,125.593)">
        <path d="M124.445,14.975C125.695,14.975 126.705,15.995 126.705,17.245C126.705,18.495 125.695,19.515 124.445,19.515C123.185,19.515 122.175,18.495 122.175,17.245C122.175,15.995 123.185,14.975 124.445,14.975" style="fill-rule:nonzero;"/>
    </g>
    <g transform="matrix(1,-6.12323e-17,-6.12323e-17,-1,-24.612,125.598)">
        <path d="M124.44,15.69C125.3,15.69 126,16.39 126,17.25C126,18.11 125.3,18.81 124.44,18.81C123.58,18.81 122.88,18.11 122.88,17.25C122.88,16.39 123.58,15.69 124.44,15.69" style="fill:white;fill-rule:nonzero;"/>
    </g>
    <g transform="matrix(1,-6.12323e-17,-6.12323e-17,-1,-31.817,132.793)">
        <path d="M131.645,14.975C132.895,14.975 133.905,15.995 133.905,17.245C133.905,18.495 132.895,19.515 131.645,19.515C130.385,19.515 129.375,18.495 129.375,17.245C129.375,15.995 130.385,14.975 131.645,14.975" style="fill-rule:nonzero;"/>
    </g>
    <g transform="matrix(1,-6.12323e-17,-6.12323e-17,-1,-31.812,132.798)">
        <path d="M131.64,15.69C132.5,15.69 133.2,16.39 133.2,17.25C133.2,18.11 132.5,18.81 131.64,18.81C130.78,18.81 130.08,18.11 130.08,17.25C130.08,16.39 130.78,15.69 131.64,15.69" style="fill:white;fill-rule:nonzero;"/>
    </g>
    <g transform="matrix(1,-6.12323e-17,-6.12323e-17,-1,-39.017,139.993)">
        <path d="M138.845,14.975C140.095,14.975 141.105,15.995 141.105,17.245C141.105,18.495 140.095,19.515 138.845,19.515C137.585,19.515 136.575,18.495 136.575,17.245C136.575,15.995 137.585,14.975 138.845,14.975" style="fill-rule:nonzero;"/>
    </g>
    <g transform="matrix(1,-6.12323e-17,-6.12323e-17,-1,-39.012,139.998)">
        <path d="M138.84,15.69C139.7,15.69 140.4,16.39 140.4,17.25C140.4,18.11 139.7,18.81 138.84,18.81C137.98,18.81 137.28,18.11 137.28,17.25C137.28,16.39 137.98,15.69 138.84,15.69" style="fill:white;fill-rule:nonzero;"/>
    </g>
    <g transform="matrix(6.12323e-17,1,-1,6.12323e-17,117.071,-16.092)">
        <rect x="143.771" y="14.979" width="4.535" height="4.535"/>
    </g>
    <g transform="matrix(1,-6.12323e-17,-6.12323e-17,-1,-46.212,147.198)">
        <path d="M146.04,15.69C146.9,15.69 147.6,16.39 147.6,17.25C147.6,18.11 146.9,18.81 146.04,18.81C145.18,18.81 144.48,18.11 144.48,17.25C144.48,16.39 145.18,15.69 146.04,15.69" style="fill:white;fill-rule:nonzero;"/>
    </g>
    <g transform="matrix(1,-6.12323e-17,-6.12323e-17,-1,-53.417,154.393)">
        <path d="M153.245,14.975C154.495,14.975 155.505,15.995 155.505,17.245C155.505,18.495 154.495,19.515 153.245,19.515C151.985,19.515 150.975,18.495 150.975,17.245C150.975,15.995 151.985,14.975 153.245,14.975" style="fill-rule:nonzero;"/>
    </g>
    <g transform="matrix(1,-6.12323e-17,-6.12323e-17,-1,-53.412,154.398)">
        <path d="M153.24,15.69C154.1,15.69 154.8,16.39 154.8,17.25C154.8,18.11 154.1,18.81 153.24,18.81C152.38,18.81 151.68,18.11 151.68,17.25C151.68,16.39 152.38,15.69 153.24,15.69" style="fill:white;fill-rule:nonzero;"/>
    </g>
    <g transform="matrix(1,-6.12323e-17,-6.12323e-17,-1,-60.617,161.593)">
        <path d="M160.445,14.975C161.695,14.975 162.705,15.995 162.705,17.245C162.705,18.495 161.695,19.515 160.445,19.515C159.185,19.515 158.175,18.495 158.175,17.245C158.175,15.995 159.185,14.975 160.445,14.975" style="fill-rule:nonzero;"/>
    </g>
    <g transform="matrix(1,-6.12323e-17,-6.12323e-17,-1,-60.612,161.598)">
        <path d="M160.44,15.69C161.3,15.69 162,16.39 162,17.25C162,18.11 161.3,18.81 160.44,18.81C159.58,18.81 158.88,18.11 158.88,17.25C158.88,16.39 159.58,15.69 160.44,15.69" style="fill:white;fill-rule:nonzero;"/>
    </g>
    <g transform="matrix(1,-6.12323e-17,-6.12323e-17,-1,-67.817,168.793)">
        <path d="M167.645,14.975C168.895,14.975 169.905,15.995 169.905,17.245C169.905,18.495 168.895,19.515 167.645,19.515C166.385,19.515 165.375,18.495 165.375,17.245C165.375,15.995 166.385,14.975 167.645,14.975" style="fill-rule:nonzero;"/>
    </g>
    <g transform="matrix(1,-6.12323e-17,-6.12323e-17,-1,-67.812,168.798)">
        <path d="M167.64,15.69C168.5,15.69 169.2,16.39 169.2,17.25C169.2,18.11 168.5,18.81 167.64,18.81C166.78,18.81 166.08,18.11 166.08,17.25C166.08,16.39 166.78,15.69 167.64,15.69" style="fill:white;fill-rule:nonzero;"/>
    </g>
    <g transform="matrix(1,-6.12323e-17,-6.12323e-17,-1,-75.017,175.993)">
        <path d="M174.845,14.975C176.095,14.975 177.105,15.995 177.105,17.245C177.105,18.495 176.095,19.515 174.845,19.515C173.585,19.515 172.575,18.495 172.575,17.245C172.575,15.995 173.585,14.975 174.845,14.975" style="fill-rule:nonzero;"/>
    </g>
    <g transform="matrix(1,-6.12323e-17,-6.12323e-17,-1,-75.012,175.998)">
        <path d="M174.84,15.69C175.7,15.69 176.4,16.39 176.4,17.25C176.4,18.11 175.7,18.81 174.84,18.81C173.98,18.81 173.28,18.11 173.28,17.25C173.28,16.39 173.98,15.69 174.84,15.69" style="fill:white;fill-rule:nonzero;"/>
    </g>
    <g transform="matrix(6.12323e-17,1,-1,6.12323e-17,117.071,-16.092)">
        <rect x="179.771" y="14.979" width="4.535" height="4.535"/>
    </g>
    <g transform="matrix(1,-6.12323e-17,-6.12323e-17,-1,-82.212,183.198)">
        <path d="M182.04,15.69C182.9,15.69 183.6,16.39 183.6,17.25C183.6,18.11 182.9,18.81 182.04,18.81C181.18,18.81 180.48,18.11 180.48,17.25C180.48,16.39 181.18,15.69 182.04,15.69" style="fill:white;fill-rule:nonzero;"/>
    </g>
    <g transform="matrix(1,-6.12323e-17,-6.12323e-17,-1,-89.417,190.393)">
        <path d="M189.245,14.975C190.495,14.975 191.505,15.995 191.505,17.245C191.505,18.495 190.495,19.515 189.245,19.515C187.985,19.515 186.975,18.495 186.975,17.245C186.975,15.995 187.985,14.975 189.245,14.975" style="fill-rule:nonzero;"/>
    </g>
    <g transform="matrix(1,-6.12323e-17,-6.12323e-17,-1,-89.412,190.398)">
        <path d="M189.24,15.69C190.1,15.69 190.8,16.39 190.8,17.25C190.8,18.11 190.1,18.81 189.24,18.81C188.38,18.81 187.68,18.11 187.68,17.25C187.68,16.39 188.38,15.69 189.24,15.69" style="fill:white;fill-rule:nonzero;"/>
    </g>
    <g transform="matrix(1,-6.12323e-17,-6.12323e-17,-1,-96.617,197.593)">
        <path d="M196.445,14.975C197.695,14.975 198.705,15.995 198.705,17.245C198.705,18.495 197.695,19.515 196.445,19.515C195.185,19.515 194.175,18.495 194.175,17.245C194.175,15.995 195.185,14.975 196.445,14.975" style="fill-rule:nonzero;"/>
    </g>
    <g transform="matrix(1,-6.12323e-17,-6.12323e-17,-1,-96.612,197.598)">
        <path d="M196.44,15.69C197.3,15.69 198,16.39 198,17.25C198,18.11 197.3,18.81 196.44,18.81C195.58,18.81 194.88,18.11 194.88,17.25C194.88,16.39 195.58,15.69 196.44,15.69" style="fill:white;fill-rule:nonzero;"/>
    </g>
    <g transform="matrix(1,-6.12323e-17,-6.12323e-17,-1,-103.817,204.793)">
        <path d="M203.645,14.975C204.895,14.975 205.905,15.995 205.905,17.245C205.905,18.495 204.895,19.515 203.645,19.515C202.385,19.515 201.375,18.495 201.375,17.245C201.375,15.995 202.385,14.975 203.645,14.975" style="fill-rule:nonzero;"/>
    </g>
    <g transform="matrix(1,-6.12323e-17,-6.12323e-17,-1,-103.812,204.798)">
        <path d="M203.64,15.69C204.5,15.69 205.2,16.39 205.2,17.25C205.2,18.11 204.5,18.81 203.64,18.81C202.78,18.81 202.08,18.11 202.08,17.25C202.08,16.39 202.78,15.69 203.64,15.69" style="fill:white;fill-rule:nonzero;"/>
    </g>
    <g transform="matrix(1,-6.12323e-17,-6.12323e-17,-1,-111.017,211.993)">
        <path d="M210.845,14.975C212.095,14.975 213.105,15.995 213.105,17.245C213.105,18.495 212.095,19.515 210.845,19.515C209.585,19.515 208.575,18.495 208.575,17.245C208.575,15.995 209.585,14.975 210.845,14.975" style="fill-rule:nonzero;"/>
    </g>
    <g transform="matrix(1,-6.12323e-17,-6.12323e-17,-1,-111.012,211.998)">
        <path d="M210.84,15.69C211.7,15.69 212.4,16.39 212.4,17.25C212.4,18.11 211.7,18.81 210.84,18.81C209.98,18.81 209.28,18.11 209.28,17.25C209.28,16.39 209.98,15.69 210.84,15.69" style="fill:white;fill-rule:nonzero;"/>
    </g>
    <g transform="matrix(1,-6.12323e-17,-6.12323e-17,-1,-118.217,219.193)">
        <path d="M218.045,14.975C219.295,14.975 220.305,15.995 220.305,17.245C220.305,18.495 219.295,19.515 218.045,19.515C216.785,19.515 215.775,18.495 215.775,17.245C215.775,15.995 216.785,14.975 218.045,14.975" style="fill-rule:nonzero;"/>
    </g>
    <g transform="matrix(1,-6.12323e-17,-6.12323e-17,-1,-118.212,219.198)">
        <path d="M218.04,15.69C218.9,15.69 219.6,16.39 219.6,17.25C219.6,18.11 218.9,18.81 218.04,18.81C217.18,18.81 216.48,18.11 216.48,17.25C216.48,16.39 217.18,15.69 218.04,15.69" style="fill:white;fill-rule:nonzero;"/>
    </g>
    <g transform="matrix(1,-6.12323e-17,-6.12323e-17,-1,-125.417,226.393)">
        <path d="M225.245,14.975C226.495,14.975 227.505,15.995 227.505,17.245C227.505,18.495 226.495,19.515 225.245,19.515C223.985,19.515 222.975,18.495 222.975,17.245C222.975,15.995 223.985,14.975 225.245,14.975" style="fill-rule:nonzero;"/>
    </g>
    <g transform="matrix(1,-6.12323e-17,-6.12323e-17,-1,-125.412,226.398)">
        <path d="M225.24,15.69C226.1,15.69 226.8,16.39 226.8,17.25C226.8,18.11 226.1,18.81 225.24,18.81C224.38,18.81 223.68,18.11 223.68,17.25C223.68,16.39 224.38,15.69 225.24,15.69" style="fill:white;fill-rule:nonzero;"/>
    </g>
    <g transform="matrix(1,-6.12323e-17,-6.12323e-17,-1,90.583,111.193)">
        <path d="M59.645,65.375C60.895,65.375 61.905,66.395 61.905,67.645C61.905,68.895 60.895,69.915 59.645,69.915C58.385,69.915 57.375,68.895 57.375,67.645C57.375,66.395 58.385,65.375 59.645,65.375" style="fill-rule:nonzero;"/>
    </g>
    <g transform="matrix(1,-6.12323e-17,-6.12323e-17,-1,90.588,111.198)">
        <path d="M59.64,66.09C60.5,66.09 61.2,66.79 61.2,67.65C61.2,68.51 60.5,69.21 59.64,69.21C58.78,69.21 58.08,68.51 58.08,67.65C58.08,66.79 58.78,66.09 59.64,66.09" style="fill:white;fill-rule:nonzero;"/>
    </g>
    <g transform="matrix(1,-6.12323e-17,-6.12323e-17,-1,83.383,118.393)">
        <path d="M66.845,65.375C68.095,65.375 69.105,66.395 69.105,67.645C69.105,68.895 68.095,69.915 66.845,69.915C65.585,69.915 64.575,68.895 64.575,67.645C64.575,66.395 65.585,65.375 66.845,65.375" style="fill-rule:nonzero;"/>
    </g>
    <g transform="matrix(1,-6.12323e-17,-6.12323e-17,-1,83.388,118.398)">
        <path d="M66.84,66.09C67.7,66.09 68.4,66.79 68.4,67.65C68.4,68.51 67.7,69.21 66.84,69.21C65.98,69.21 65.28,68.51 65.28,67.65C65.28,66.79 65.98,66.09 66.84,66.09" style="fill:white;fill-rule:nonzero;"/>
    </g>
    <g transform="matrix(-6.12323e-17,-1,-1,6.12323e-17,217.87,131.985)">
        <rect x="71.771" y="65.378" width="4.535" height="4.536"/>
    </g>
    <g transform="matrix(1,-6.12323e-17,-6.12323e-17,-1,76.188,125.598)">
        <path d="M74.04,66.09C74.9,66.09 75.6,66.79 75.6,67.65C75.6,68.51 74.9,69.21 74.04,69.21C73.18,69.21 72.48,68.51 72.48,67.65C72.48,66.79 73.18,66.09 74.04,66.09" style="fill:white;fill-rule:nonzero;"/>
    </g>
    <g transform="matrix(1,-6.12323e-17,-6.12323e-17,-1,68.983,132.793)">
        <path d="M81.245,65.375C82.495,65.375 83.505,66.395 83.505,67.645C83.505,68.895 82.495,69.915 81.245,69.915C79.985,69.915 78.975,68.895 78.975,67.645C78.975,66.395 79.985,65.375 81.245,65.375" style="fill-rule:nonzero;"/>
    </g>
    <g transform="matrix(1,-6.12323e-17,-6.12323e-17,-1,68.988,132.798)">
        <path d="M81.24,66.09C82.1,66.09 82.8,66.79 82.8,67.65C82.8,68.51 82.1,69.21 81.24,69.21C80.38,69.21 79.68,68.51 79.68,67.65C79.68,66.79 80.38,66.09 81.24,66.09" style="fill:white;fill-rule:nonzero;"/>
    </g>
    <g transform="matrix(1,-6.12323e-17,-6.12323e-17,-1,61.783,139.993)">
        <path d="M88.445,65.375C89.695,65.375 90.705,66.395 90.705,67.645C90.705,68.895 89.695,69.915 88.445,69.915C87.185,69.915 86.175,68.895 86.175,67.645C86.175,66.395 87.185,65.375 88.445,65.375" style="fill-rule:nonzero;"/>
    </g>
    <g transform="matrix(1,-6.12323e-17,-6.12323e-17,-1,61.788,139.998)">
        <path d="M88.44,66.09C89.3,66.09 90,66.79 90,67.65C90,68.51 89.3,69.21 88.44,69.21C87.58,69.21 86.88,68.51 86.88,67.65C86.88,66.79 87.58,66.09 88.44,66.09" style="fill:white;fill-rule:nonzero;"/>
    </g>
    <g transform="matrix(1,-6.12323e-17,-6.12323e-17,-1,54.583,147.193)">
        <path d="M95.645,65.375C96.895,65.375 97.905,66.395 97.905,67.645C97.905,68.895 96.895,69.915 95.645,69.915C94.385,69.915 93.375,68.895 93.375,67.645C93.375,66.395 94.385,65.375 95.645,65.375" style="fill-rule:nonzero;"/>
    </g>
    <g transform="matrix(1,-6.12323e-17,-6.12323e-17,-1,54.588,147.198)">
        <path d="M95.64,66.09C96.5,66.09 97.2,66.79 97.2,67.65C97.2,68.51 96.5,69.21 95.64,69.21C94.78,69.21 94.08,68.51 94.08,67.65C94.08,66.79 94.78,66.09 95.64,66.09" style="fill:white;fill-rule:nonzero;"/>
    </g>
    <g transform="matrix(1,-6.12323e-17,-6.12323e-17,-1,47.383,154.393)">
        <path d="M102.845,65.375C104.095,65.375 105.105,66.395 105.105,67.645C105.105,68.895 104.095,69.915 102.845,69.915C101.585,69.915 100.575,68.895 100.575,67.645C100.575,66.395 101.585,65.375 102.845,65.375" style="fill-rule:nonzero;"/>
    </g>
    <g transform="matrix(1,-6.12323e-17,-6.12323e-17,-1,47.388,154.398)">
        <path d="M102.84,66.09C103.7,66.09 104.4,66.79 104.4,67.65C104.4,68.51 103.7,69.21 102.84,69.21C101.98,69.21 101.28,68.51 101.28,67.65C101.28,66.79 101.98,66.09 102.84,66.09" style="fill:white;fill-rule:nonzero;"/>
    </g>
    <g transform="matrix(-6.12323e-17,-1,-1,6.12323e-17,217.87,203.985)">
        <rect x="107.771" y="65.378" width="4.535" height="4.536"/>
    </g>
    <g transform="matrix(1,-6.12323e-17,-6.12323e-17,-1,40.188,161.598)">
        <path d="M110.04,66.09C110.9,66.09 111.6,66.79 111.6,67.65C111.6,68.51 110.9,69.21 110.04,69.21C109.18,69.21 108.48,68.51 108.48,67.65C108.48,66.79 109.18,66.09 110.04,66.09" style="fill:white;fill-rule:nonzero;"/>
    </g>
    <g transform="matrix(1,-6.12323e-17,-6.12323e-17,-1,32.983,168.793)">
        <path d="M117.245,65.375C118.495,65.375 119.505,66.395 119.505,67.645C119.505,68.895 118.495,69.915 117.245,69.915C115.985,69.915 114.975,68.895 114.975,67.645C114.975,66.395 115.985,65.375 117.245,65.375" style="fill-rule:nonzero;"/>
    </g>
    <g transform="matrix(1,-6.12323e-17,-6.12323e-17,-1,32.988,168.798)">
        <path d="M117.24,66.09C118.1,66.09 118.8,66.79 118.8,67.65C118.8,68.51 118.1,69.21 117.24,69.21C116.38,69.21 115.68,68.51 115.68,67.65C115.68,66.79 116.38,66.09 117.24,66.09" style="fill:white;fill-rule:nonzero;"/>
    </g>
    <g transform="matrix(1,-6.12323e-17,-6.12323e-17,-1,25.783,175.993)">
        <path d="M124.445,65.375C125.695,65.375 126.705,66.395 126.705,67.645C126.705,68.895 125.695,69.915 124.445,69.915C123.185,69.915 122.175,68.895 122.175,67.645C122.175,66.395 123.185,65.375 124.445,65.375" style="fill-rule:nonzero;"/>
    </g>
    <g transform="matrix(1,-6.12323e-17,-6.12323e-17,-1,25.788,175.998)">
        <path d="M124.44,66.09C125.3,66.09 126,66.79 126,67.65C126,68.51 125.3,69.21 124.44,69.21C123.58,69.21 122.88,68.51 122.88,67.65C122.88,66.79 123.58,66.09 124.44,66.09" style="fill:white;fill-rule:nonzero;"/>
    </g>
    <g transform="matrix(1,-6.12323e-17,-6.12323e-17,-1,18.583,183.193)">
        <path d="M131.645,65.375C132.895,65.375 133.905,66.395 133.905,67.645C133.905,68.895 132.895,69.915 131.645,69.915C130.385,69.915 129.375,68.895 129.375,67.645C129.375,66.395 130.385,65.375 131.645,65.375" style="fill-rule:nonzero;"/>
    </g>
    <g transform="matrix(1,-6.12323e-17,-6.12323e-17,-1,18.588,183.198)">
        <path d="M131.64,66.09C132.5,66.09 133.2,66.79 133.2,67.65C133.2,68.51 132.5,69.21 131.64,69.21C130.78,69.21 130.08,68.51 130.08,67.65C130.08,66.79 130.78,66.09 131.64,66.09" style="fill:white;fill-rule:nonzero;"/>
    </g>
    <g transform="matrix(1,-6.12323e-17,-6.12323e-17,-1,11.383,190.393)">
        <path d="M138.845,65.375C140.095,65.375 141.105,66.395 141.105,67.645C141.105,68.895 140.095,69.915 138.845,69.915C137.585,69.915 136.575,68.895 136.575,67.645C136.575,66.395 137.585,65.375 138.845,65.375" style="fill-rule:nonzero;"/>
    </g>
    <g transform="matrix(1,-6.12323e-17,-6.12323e-17,-1,11.388,190.398)">
        <path d="M138.84,66.09C139.7,66.09 140.4,66.79 140.4,67.65C140.4,68.51 139.7,69.21 138.84,69.21C137.98,69.21 137.28,68.51 137.28,67.65C137.28,66.79 137.98,66.09 138.84,66.09" style="fill:white;fill-rule:nonzero;"/>
    </g>
    <g transform="matrix(-6.12323e-17,-1,-1,6.12323e-17,217.87,275.985)">
        <rect x="143.771" y="65.378" width="4.535" height="4.536"/>
    </g>
    <g transform="matrix(1,-6.12323e-17,-6.12323e-17,-1,4.188,197.598)">
        <path d="M146.04,66.09C146.9,66.09 147.6,66.79 147.6,67.65C147.6,68.51 146.9,69.21 146.04,69.21C145.18,69.21 144.48,68.51 144.48,67.65C144.48,66.79 145.18,66.09 146.04,66.09" style="fill:white;fill-rule:nonzero;"/>
    </g>
    <g transform="matrix(1,-6.12323e-17,-6.12323e-17,-1,-3.017,204.793)">
        <path d="M153.245,65.375C154.495,65.375 155.505,66.395 155.505,67.645C155.505,68.895 154.495,69.915 153.245,69.915C151.985,69.915 150.975,68.895 150.975,67.645C150.975,66.395 151.985,65.375 153.245,65.375" style="fill-rule:nonzero;"/>
    </g>
    <g transform="matrix(1,-6.12323e-17,-6.12323e-17,-1,-3.012,204.798)">
        <path d="M153.24,66.09C154.1,66.09 154.8,66.79 154.8,67.65C154.8,68.51 154.1,69.21 153.24,69.21C152.38,69.21 151.68,68.51 151.68,67.65C151.68,66.79 152.38,66.09 153.24,66.09" style="fill:white;fill-rule:nonzero;"/>
    </g>
    <g transform="matrix(1,-6.12323e-17,-6.12323e-17,-1,-10.217,211.993)">
        <path d="M160.445,65.375C161.695,65.375 162.705,66.395 162.705,67.645C162.705,68.895 161.695,69.915 160.445,69.915C159.185,69.915 158.175,68.895 158.175,67.645C158.175,66.395 159.185,65.375 160.445,65.375" style="fill-rule:nonzero;"/>
    </g>
    <g transform="matrix(1,-6.12323e-17,-6.12323e-17,-1,-10.212,211.998)">
        <path d="M160.44,66.09C161.3,66.09 162,66.79 162,67.65C162,68.51 161.3,69.21 160.44,69.21C159.58,69.21 158.88,68.51 158.88,67.65C158.88,66.79 159.58,66.09 160.44,66.09" style="fill:white;fill-rule:nonzero;"/>
    </g>
    <g transform="matrix(1,-6.12323e-17,-6.12323e-17,-1,-17.417,219.193)">
        <path d="M167.645,65.375C168.895,65.375 169.905,66.395 169.905,67.645C169.905,68.895 168.895,69.915 167.645,69.915C166.385,69.915 165.375,68.895 165.375,67.645C165.375,66.395 166.385,65.375 167.645,65.375" style="fill-rule:nonzero;"/>
    </g>
    <g transform="matrix(1,-6.12323e-17,-6.12323e-17,-1,-17.412,219.198)">
        <path d="M167.64,66.09C168.5,66.09 169.2,66.79 169.2,67.65C169.2,68.51 168.5,69.21 167.64,69.21C166.78,69.21 166.08,68.51 166.08,67.65C166.08,66.79 166.78,66.09 167.64,66.09" style="fill:white;fill-rule:nonzero;"/>
    </g>
    <g transform="matrix(1,-6.12323e-17,-6.12323e-17,-1,-24.617,226.393)">
        <path d="M174.845,65.375C176.095,65.375 177.105,66.395 177.105,67.645C177.105,68.895 176.095,69.915 174.845,69.915C173.585,69.915 172.575,68.895 172.575,67.645C172.575,66.395 173.585,65.375 174.845,65.375" style="fill-rule:nonzero;"/>
    </g>
    <g transform="matrix(1,-6.12323e-17,-6.12323e-17,-1,-24.612,226.398)">
        <path d="M174.84,66.09C175.7,66.09 176.4,66.79 176.4,67.65C176.4,68.51 175.7,69.21 174.84,69.21C173.98,69.21 173.28,68.51 173.28,67.65C173.28,66.79 173.98,66.09 174.84,66.09" style="fill:white;fill-rule:nonzero;"/>
    </g>
    <g transform="matrix(-6.12323e-17,-1,-1,6.12323e-17,217.87,347.985)">
        <rect x="179.771" y="65.378" width="4.535" height="4.536"/>
    </g>
    <g transform="matrix(1,-6.12323e-17,-6.12323e-17,-1,-31.812,233.598)">
        <path d="M182.04,66.09C182.9,66.09 183.6,66.79 183.6,67.65C183.6,68.51 182.9,69.21 182.04,69.21C181.18,69.21 180.48,68.51 180.48,67.65C180.48,66.79 181.18,66.09 182.04,66.09" style="fill:white;fill-rule:nonzero;"/>
    </g>
    <g transform="matrix(1,-6.12323e-17,-6.12323e-17,-1,-39.017,240.793)">
        <path d="M189.245,65.375C190.495,65.375 191.505,66.395 191.505,67.645C191.505,68.895 190.495,69.915 189.245,69.915C187.985,69.915 186.975,68.895 186.975,67.645C186.975,66.395 187.985,65.375 189.245,65.375" style="fill-rule:nonzero;"/>
    </g>
    <g transform="matrix(1,-6.12323e-17,-6.12323e-17,-1,-39.012,240.798)">
        <path d="M189.24,66.09C190.1,66.09 190.8,66.79 190.8,67.65C190.8,68.51 190.1,69.21 189.24,69.21C188.38,69.21 187.68,68.51 187.68,67.65C187.68,66.79 188.38,66.09 189.24,66.09" style="fill:white;fill-rule:nonzero;"/>
    </g>
    <g transform="matrix(1,-6.12323e-17,-6.12323e-17,-1,-46.217,247.993)">
        <path d="M196.445,65.375C197.695,65.375 198.705,66.395 198.705,67.645C198.705,68.895 197.695,69.915 196.445,69.915C195.185,69.915 194.175,68.895 194.175,67.645C194.175,66.395 195.185,65.375 196.445,65.375" style="fill-rule:nonzero;"/>
    </g>
    <g transform="matrix(1,-6.12323e-17,-6.12323e-17,-1,-46.212,247.998)">
        <path d="M196.44,66.09C197.3,66.09 198,66.79 198,67.65C198,68.51 197.3,69.21 196.44,69.21C195.58,69.21 194.88,68.51 194.88,67.65C194.88,66.79 195.58,66.09 196.44,66.09" style="fill:white;fill-rule:nonzero;"/>
    </g>
    <g transform="matrix(1,-6.12323e-17,-6.12323e-17,-1,-53.417,255.193)">
        <path d="M203.645,65.375C204.895,65.375 205.905,66.395 205.905,67.645C205.905,68.895 204.895,69.915 203.645,69.915C202.385,69.915 201.375,68.895 201.375,67.645C201.375,66.395 202.385,65.375 203.645,65.375" style="fill-rule:nonzero;"/>
    </g>
    <g transform="matrix(1,-6.12323e-17,-6.12323e-17,-1,-53.412,255.198)">
        <path d="M203.64,66.09C204.5,66.09 205.2,66.79 205.2,67.65C205.2,68.51 204.5,69.21 203.64,69.21C202.78,69.21 202.08,68.51 202.08,67.65C202.08,66.79 202.78,66.09 203.64,66.09" style="fill:white;fill-rule:nonzero;"/>
    </g>
    <g transform="matrix(1,-6.12323e-17,-6.12323e-17,-1,-60.617,262.393)">
        <path d="M210.845,65.375C212.095,65.375 213.105,66.395 213.105,67.645C213.105,68.895 212.095,69.915 210.845,69.915C209.585,69.915 208.575,68.895 208.575,67.645C208.575,66.395 209.585,65.375 210.845,65.375" style="fill-rule:nonzero;"/>
    </g>
    <g transform="matrix(1,-6.12323e-17,-6.12323e-17,-1,-60.612,262.398)">
        <path d="M210.84,66.09C211.7,66.09 212.4,66.79 212.4,67.65C212.4,68.51 211.7,69.21 210.84,69.21C209.98,69.21 209.28,68.51 209.28,67.65C209.28,66.79 209.98,66.09 210.84,66.09" style="fill:white;fill-rule:nonzero;"/>
    </g>
    <g transform="matrix(1,-6.12323e-17,-6.12323e-17,-1,-67.817,269.593)">
        <path d="M218.045,65.375C219.295,65.375 220.305,66.395 220.305,67.645C220.305,68.895 219.295,69.915 218.045,69.915C216.785,69.915 215.775,68.895 215.775,67.645C215.775,66.395 216.785,65.375 218.045,65.375" style="fill-rule:nonzero;"/>
    </g>
    <g transform="matrix(1,-6.12323e-17,-6.12323e-17,-1,-67.812,269.598)">
        <path d="M218.04,66.09C218.9,66.09 219.6,66.79 219.6,67.65C219.6,68.51 218.9,69.21 218.04,69.21C217.18,69.21 216.48,68.51 216.48,67.65C216.48,66.79 217.18,66.09 218.04,66.09" style="fill:white;fill-rule:nonzero;"/>
    </g>
    <g transform="matrix(1,-6.12323e-17,-6.12323e-17,-1,-75.017,276.793)">
        <path d="M225.245,65.375C226.495,65.375 227.505,66.395 227.505,67.645C227.505,68.895 226.495,69.915 225.245,69.915C223.985,69.915 222.975,68.895 222.975,67.645C222.975,66.395 223.985,65.375 225.245,65.375" style="fill-rule:nonzero;"/>
    </g>
    <g transform="matrix(1,-6.12323e-17,-6.12323e-17,-1,-75.012,276.798)">
        <path d="M225.24,66.09C226.1,66.09 226.8,66.79 226.8,67.65C226.8,68.51 226.1,69.21 225.24,69.21C224.38,69.21 223.68,68.51 223.68,67.65C223.68,66.79 224.38,66.09 225.24,66.09" style="fill:white;fill-rule:nonzero;"/>
    </g>
    <g transform="matrix(-6.12323e-17,-1,-1,6.12323e-17,142.302,104.175)">
        <path d="M59.283,29.862L60.984,29.862" style="fill:none;fill-rule:nonzero;stroke:black;stroke-width:3.4px;"/>
    </g>
    <g transform="matrix(6.12323e-17,1,-1,6.12323e-17,142.302,-16.092)">
        <path d="M59.283,29.862L60.984,29.862" style="fill:none;fill-rule:nonzero;stroke:white;stroke-width:2.27px;"/>
    </g>
    <g transform="matrix(-6.12323e-17,-1,-1,6.12323e-17,142.302,127.986)">
        <path d="M70.905,29.862L73.173,29.862" style="fill:none;fill-rule:nonzero;stroke:black;stroke-width:3.4px;"/>
    </g>
    <g transform="matrix(6.12323e-17,1,-1,6.12323e-17,142.302,-16.092)">
        <path d="M70.905,29.862L73.172,29.862" style="fill:none;fill-rule:nonzero;stroke:white;stroke-width:2.27px;"/>
    </g>
    <g transform="matrix(-6.12323e-17,-1,-1,6.12323e-17,191.342,127.986)">
        <path d="M70.905,54.382L73.173,54.382" style="fill:none;fill-rule:nonzero;stroke:black;stroke-width:3.4px;"/>
    </g>
    <g transform="matrix(6.12323e-17,1,-1,6.12323e-17,191.342,-16.092)">
        <path d="M70.905,54.382L73.173,54.382" style="fill:none;fill-rule:nonzero;stroke:white;stroke-width:2.27px;"/>
    </g>
    <g transform="matrix(-6.12323e-17,-1,-1,6.12323e-17,191.342,104.175)">
        <path d="M59.283,54.382L60.984,54.382" style="fill:none;fill-rule:nonzero;stroke:black;stroke-width:3.4px;"/>
    </g>
    <g transform="matrix(6.12323e-17,1,-1,6.12323e-17,191.342,-16.092)">
        <path d="M59.283,54.382L60.984,54.382" style="fill:none;fill-rule:nonzero;stroke:white;stroke-width:2.27px;"/>
    </g>
    <g transform="matrix(1,-6.12323e-17,-6.12323e-17,-1,-91.937,259.873)">
        <path d="M225.245,48.175C226.655,48.175 227.795,49.315 227.795,50.725C227.795,52.135 226.655,53.275 225.245,53.275C223.835,53.275 222.685,52.135 222.685,50.725C222.685,49.315 223.835,48.175 225.245,48.175" style="fill-rule:nonzero;"/>
    </g>
    <g transform="matrix(1,-6.12323e-17,-6.12323e-17,-1,-91.932,259.878)">
        <path d="M225.24,49.03C226.18,49.03 226.94,49.79 226.94,50.73C226.94,51.67 226.18,52.43 225.24,52.43C224.3,52.43 223.54,51.67 223.54,50.73C223.54,49.79 224.3,49.03 225.24,49.03" style="fill:white;fill-rule:nonzero;"/>
    </g>
    <g transform="matrix(1,-6.12323e-17,-6.12323e-17,-1,-99.137,252.673)">
        <path d="M225.245,40.975C226.655,40.975 227.795,42.115 227.795,43.525C227.795,44.935 226.655,46.075 225.245,46.075C223.835,46.075 222.685,44.935 222.685,43.525C222.685,42.115 223.835,40.975 225.245,40.975" style="fill-rule:nonzero;"/>
    </g>
    <g transform="matrix(1,-6.12323e-17,-6.12323e-17,-1,-99.132,252.678)">
        <path d="M225.24,41.83C226.18,41.83 226.94,42.59 226.94,43.53C226.94,44.47 226.18,45.23 225.24,45.23C224.3,45.23 223.54,44.47 223.54,43.53C223.54,42.59 224.3,41.83 225.24,41.83" style="fill:white;fill-rule:nonzero;"/>
    </g>
    <g transform="matrix(1,-6.12323e-17,-6.12323e-17,-1,-106.335,245.473)">
        <rect x="223.007" y="33.775" width="4.464" height="5.102"/>
    </g>
    <g transform="matrix(1,-6.12323e-17,-6.12323e-17,-1,-106.332,245.478)">
        <path d="M225.24,34.63C226.18,34.63 226.94,35.39 226.94,36.33C226.94,37.27 226.18,38.03 225.24,38.03C224.3,38.03 223.54,37.27 223.54,36.33C223.54,35.39 224.3,34.63 225.24,34.63" style="fill:white;fill-rule:nonzero;"/>
    </g>
    <g transform="matrix(6.12323e-17,1,-1,6.12323e-17,192.158,-16.092)">
        <path d="M63.304,54.79L68.585,54.79" style="fill:none;fill-rule:nonzero;stroke:black;stroke-width:0.72px;"/>
    </g>
    <g transform="matrix(6.12323e-17,1,-1,6.12323e-17,166.816,-16.092)">
        <path d="M52.764,54.79L52.764,29.448L56.963,29.448" style="fill:none;fill-rule:nonzero;stroke:black;stroke-width:0.72px;"/>
    </g>
    <g transform="matrix(6.12323e-17,1,-1,6.12323e-17,141.474,-16.092)">
        <path d="M63.303,29.448L68.586,29.448" style="fill:none;fill-rule:nonzero;stroke:black;stroke-width:0.72px;"/>
    </g>
    <g transform="matrix(6.12323e-17,1,-1,6.12323e-17,141.474,-16.092)">
        <path d="M52.764,29.448L56.964,29.448" style="fill:none;fill-rule:nonzero;stroke:black;stroke-width:0.72px;"/>
    </g>
    <g transform="matrix(-1,6.12323e-17,6.12323e-17,1,272.583,122.473)">
        <path d="M163.975,25.72L164.595,25.72" style="fill:none;fill-rule:nonzero;stroke:black;stroke-width:0.72px;"/>
    </g>
    <g transform="matrix(6.12323e-17,1,-1,6.12323e-17,149.838,-16.092)">
        <path d="M152.947,33.63L164.285,33.63" style="fill:none;fill-rule:nonzero;stroke:black;stroke-width:0.72px;"/>
    </g>
    <g transform="matrix(6.12323e-17,1,-1,6.12323e-17,133.398,-16.092)">
        <path d="M152.947,25.41L164.285,25.41" style="fill:none;fill-rule:nonzero;stroke:black;stroke-width:0.72px;"/>
    </g>
    <g transform="matrix(-1,6.12323e-17,6.12323e-17,1,268.845,103.535)">
        <path d="M152.637,33.32L153.257,33.32" style="fill:none;fill-rule:nonzero;stroke:black;stroke-width:0.72px;"/>
    </g>
    <g transform="matrix(-1,6.12323e-17,6.12323e-17,1,261.245,111.135)">
        <path d="M152.637,25.72L153.257,25.72" style="fill:none;fill-rule:nonzero;stroke:black;stroke-width:0.72px;"/>
    </g>
    <g transform="matrix(-1,6.12323e-17,6.12323e-17,1,280.183,114.873)">
        <path d="M163.975,33.32L164.595,33.32" style="fill:none;fill-rule:nonzero;stroke:black;stroke-width:0.72px;"/>
    </g>
    <g transform="matrix(-1,6.12323e-17,6.12323e-17,1,351.343,165.621)">
        <path d="M230.639,39.926L236.039,39.926L236.039,47.126L214.439,47.126L214.439,39.926" style="fill:none;fill-rule:nonzero;stroke:black;stroke-width:0.58px;"/>
    </g>
    <g transform="matrix(-1,6.12323e-17,6.12323e-17,1,350.443,159.321)">
        <path d="M213.539,46.226L229.739,46.226" style="fill:none;fill-rule:nonzero;stroke:black;stroke-width:0.58px;"/>
    </g>
    <g transform="matrix(-1,6.12323e-17,6.12323e-17,1,298.503,96.553)">
        <path d="M163.975,51.64L164.595,51.64" style="fill:none;fill-rule:nonzero;stroke:black;stroke-width:0.72px;"/>
    </g>
    <g transform="matrix(6.12323e-17,1,-1,6.12323e-17,201.678,-16.092)">
        <path d="M152.947,59.55L164.285,59.55" style="fill:none;fill-rule:nonzero;stroke:black;stroke-width:0.72px;"/>
    </g>
    <g transform="matrix(6.12323e-17,1,-1,6.12323e-17,185.238,-16.092)">
        <path d="M152.947,51.33L164.285,51.33" style="fill:none;fill-rule:nonzero;stroke:black;stroke-width:0.72px;"/>
    </g>
    <g transform="matrix(-1,6.12323e-17,6.12323e-17,1,294.765,77.615)">
        <path d="M152.637,59.24L153.257,59.24" style="fill:none;fill-rule:nonzero;stroke:black;stroke-width:0.72px;"/>
    </g>
    <g transform="matrix(-1,6.12323e-17,6.12323e-17,1,287.165,85.215)">
        <path d="M152.637,51.64L153.257,51.64" style="fill:none;fill-rule:nonzero;stroke:black;stroke-width:0.72px;"/>
    </g>
    <g transform="matrix(-1,6.12323e-17,6.12323e-17,1,306.103,88.953)">
        <path d="M163.975,59.24L164.595,59.24" style="fill:none;fill-rule:nonzero;stroke:black;stroke-width:0.72px;"/>
    </g>
    <g transform="matrix(1,-6.12323e-17,-6.12323e-17,-1,-38.957,240.803)">
        <path d="M189.215,65.415C190.465,65.415 191.485,66.425 191.485,67.675C191.485,68.935 190.465,69.945 189.215,69.945C187.965,69.945 186.945,68.935 186.945,67.675C186.945,66.425 187.965,65.415 189.215,65.415" style="fill:none;fill-rule:nonzero;stroke:black;stroke-width:1.13px;"/>
    </g>
    <g transform="matrix(1,-6.12323e-17,-6.12323e-17,-1,-46.217,247.993)">
        <path d="M196.445,65.375C197.695,65.375 198.705,66.395 198.705,67.645C198.705,68.895 197.695,69.915 196.445,69.915C195.185,69.915 194.175,68.895 194.175,67.645C194.175,66.395 195.185,65.375 196.445,65.375" style="fill:none;fill-rule:nonzero;stroke:black;stroke-width:1.13px;"/>
    </g>
    <g transform="matrix(1,-6.12323e-17,-6.12323e-17,-1,-46.522,172.048)">
        <path d="M158.62,27.11C159.95,27.11 161.03,28.19 161.03,29.52C161.03,30.85 159.95,31.93 158.62,31.93C157.29,31.93 156.21,30.85 156.21,29.52C156.21,28.19 157.29,27.11 158.62,27.11" style="fill:rgb(107,107,107);fill-rule:nonzero;stroke:black;stroke-width:0.72px;"/>
    </g>
    <g transform="matrix(1,-6.12323e-17,-6.12323e-17,-1,-20.602,197.968)">
        <path d="M158.62,53.03C159.95,53.03 161.03,54.11 161.03,55.44C161.03,56.77 159.95,57.85 158.62,57.85C157.29,57.85 156.21,56.77 156.21,55.44C156.21,54.11 157.29,53.03 158.62,53.03" style="fill:rgb(109,109,109);fill-rule:nonzero;stroke:black;stroke-width:0.72px;"/>
    </g>
    <g transform="matrix(1,0,0,1,-28,2)">
        <text x="97.882px" y="44px" style="font-family:'ArialMT', 'Arial', sans-serif;font-size:6.98px;">&lt;GP0&gt;</text>
    </g>
    <g transform="matrix(1,0,0,1,-27.9864,24)">
        <text x="97.882px" y="44px" style="font-family:'ArialMT', 'Arial', sans-serif;font-size:6.98px;">&lt;GP2&gt;</text>
    </g>
    <g transform="matrix(1,0,0,1,-27.9864,31)">
        <text x="97.882px" y="44px" style="font-family:'ArialMT', 'Arial', sans-serif;font-size:6.98px;">&lt;GP3&gt;</text>
    </g>
    <g transform="matrix(1,0,0,1,-27.9864,38)">
        <text x="97.882px" y="44px" style="font-family:'ArialMT', 'Arial', sans-serif;font-size:6.98px;">&lt;GP4&gt;</text>
    </g>
    <g transform="matrix(1,0,0,1,-27.9864,45)">
        <text x="97.882px" y="44px" style="font-family:'ArialMT', 'Arial', sans-serif;font-size:6.98px;">&lt;GP5&gt;</text>
    </g>
    <g transform="matrix(1,0,0,1,-27.9864,60)">
        <text x="97.882px" y="44px" style="font-family:'ArialMT', 'Arial', sans-serif;font-size:6.98px;">&lt;GP6&gt;</text>
    </g>
    <g transform="matrix(1,0,0,1,-27.9864,96)">
        <text x="94px" y="44px" style="font-family:'ArialMT', 'Arial', sans-serif;font-size:6.98px;">&lt;GP10&gt;</text>
    </g>
    <g transform="matrix(1,0,0,1,-27.9864,103)">
        <text x="94.518px" y="44px" style="font-family:'ArialMT', 'Arial', sans-serif;font-size:6.98px;">&lt;GP1<tspan x="112.044px 115.926px " y="44px 44px ">1&gt;</tspan></text>
    </g>
    <g transform="matrix(1,0,0,1,-27.9864,110)">
        <text x="94px" y="44px" style="font-family:'ArialMT', 'Arial', sans-serif;font-size:6.98px;">&lt;GP12&gt;</text>
    </g>
    <g transform="matrix(1,0,0,1,-27.9864,117)">
        <text x="94px" y="44px" style="font-family:'ArialMT', 'Arial', sans-serif;font-size:6.98px;">&lt;GP13&gt;</text>
    </g>
    <g transform="matrix(1,0,0,1,-27.9864,132)">
        <text x="94px" y="44px" style="font-family:'ArialMT', 'Arial', sans-serif;font-size:6.98px;">&lt;GP14&gt;</text>
    </g>
    <g transform="matrix(1,0,0,1,-27.9864,67)">
        <text x="97.882px" y="44px" style="font-family:'ArialMT', 'Arial', sans-serif;font-size:6.98px;">&lt;GP7&gt;</text>
    </g>
    <g transform="matrix(1,0,0,1,-27.9864,74.0463)">
        <text x="97.882px" y="44px" style="font-family:'ArialMT', 'Arial', sans-serif;font-size:6.98px;">&lt;GP8&gt;</text>
    </g>
    <g transform="matrix(1,0,0,1,-27.9864,81)">
        <text x="97.882px" y="44px" style="font-family:'ArialMT', 'Arial', sans-serif;font-size:6.98px;">&lt;GP9&gt;</text>
    </g>
    <g transform="matrix(1,0,0,1,-28,9)">
        <text x="97.882px" y="44px" style="font-family:'ArialMT', 'Arial', sans-serif;font-size:6.98px;">&lt;GP1&gt;</text>
    </g>
    <g transform="matrix(1,0,0,1,-28,16.6233)">
        <text x="104.491px" y="44px" style="font-family:'Arial-BoldMT', 'Arial', sans-serif;font-weight:700;font-size:6.98px;">GND</text>
    </g>
    <g transform="matrix(1,0,0,1,-28,52.6233)">
        <text x="104.491px" y="44px" style="font-family:'Arial-BoldMT', 'Arial', sans-serif;font-weight:700;font-size:6.98px;">GND</text>
    </g>
    <g transform="matrix(1,0,0,1,-28,88.6233)">
        <text x="104.491px" y="44px" style="font-family:'Arial-BoldMT', 'Arial', sans-serif;font-weight:700;font-size:6.98px;">GND</text>
    </g>
    <g transform="matrix(1,0,0,1,-28,124.623)">
        <text x="104.491px" y="44px" style="font-family:'Arial-BoldMT', 'Arial', sans-serif;font-weight:700;font-size:6.98px;">GND</text>
    </g>
    <g transform="matrix(1,0,0,1,-28,138.623)">
        <text x="83.928px" y="44px" style="font-family:'ArialMT', 'Arial', sans-serif;font-size:6.98px;fill:rgb(223,30,30);">VREF_EXT</text>
    </g>
    <g transform="matrix(1,0,0,1,-28.0375,146.623)">
        <text x="101.382px" y="44px" style="font-family:'ArialMT', 'Arial', sans-serif;font-size:6.98px;fill:rgb(27,167,43);">ADC0</text>
    </g>
    <g transform="matrix(1,0,0,1,-28.0375,153.623)">
        <text x="101.382px" y="44px" style="font-family:'ArialMT', 'Arial', sans-serif;font-size:6.98px;fill:rgb(27,167,43);">ADC1</text>
    </g>
    <g transform="matrix(1,0,0,1,-28.0375,160.623)">
        <text x="101.382px" y="44px" style="font-family:'ArialMT', 'Arial', sans-serif;font-size:6.98px;fill:rgb(27,167,43);">ADC2</text>
    </g>
    <g transform="matrix(1,0,0,1,-28.0204,167.623)">
        <text x="101.382px" y="44px" style="font-family:'ArialMT', 'Arial', sans-serif;font-size:6.98px;fill:rgb(27,167,43);">ADC3</text>
    </g>
    <g transform="matrix(1,0,0,1,60,2)">
        <text x="97.882px" y="44px" style="font-family:'ArialMT', 'Arial', sans-serif;font-size:6.98px;fill:rgb(223,30,30);">VBUS</text>
    </g>
    <g transform="matrix(1,0,0,1,60,24)">
        <text x="97.882px" y="44px" style="font-family:'ArialMT', 'Arial', sans-serif;font-size:6.98px;">N/C</text>
    </g>
    <g transform="matrix(1,0,0,1,60,31)">
        <text x="97.882px" y="44px" style="font-family:'ArialMT', 'Arial', sans-serif;font-size:6.98px;fill:rgb(223,30,30);">3.3V</text>
    </g>
    <g transform="matrix(1,0,0,1,60,38)">
        <text x="97.882px" y="44px" style="font-family:'ArialMT', 'Arial', sans-serif;font-size:6.98px;fill:rgb(0,99,255);">nBOOT</text>
    </g>
    <g transform="matrix(1,0,0,1,60,45)">
        <text x="97.882px" y="44px" style="font-family:'ArialMT', 'Arial', sans-serif;font-size:6.98px;">&lt;GP28&gt;</text>
    </g>
    <g transform="matrix(1,0,0,1,60,59.9148)">
        <text x="97.882px" y="44px" style="font-family:'ArialMT', 'Arial', sans-serif;font-size:6.98px;">&lt;GP27&gt;</text>
    </g>
    <g transform="matrix(1,0,0,1,63.8821,96)">
        <text x="94px" y="44px" style="font-family:'ArialMT', 'Arial', sans-serif;font-size:6.98px;">&lt;GP21&gt;</text>
    </g>
    <g transform="matrix(1,0,0,1,63.8821,103)">
        <text x="94.518px" y="44px" style="font-family:'ArialMT', 'Arial', sans-serif;font-size:6.98px;">&lt;GP20&gt;</text>
    </g>
    <g transform="matrix(1,0,0,1,63.8821,110)">
        <text x="94px" y="44px" style="font-family:'ArialMT', 'Arial', sans-serif;font-size:6.98px;">&lt;GP19&gt;</text>
    </g>
    <g transform="matrix(1,0,0,1,63.8821,117)">
        <text x="94px" y="44px" style="font-family:'ArialMT', 'Arial', sans-serif;font-size:6.98px;">&lt;GP29&gt;</text>
    </g>
    <g transform="matrix(6.12323e-17,-1,1,6.12323e-17,77.3797,325.765)">
        <text x="94px" y="44px" style="font-family:'ArialMT', 'Arial', sans-serif;font-size:6.98px;">SWC</text>
    </g>
    <g transform="matrix(6.12323e-17,-1,1,6.12323e-17,91.2828,325.669)">
        <text x="94px" y="44px" style="font-family:'ArialMT', 'Arial', sans-serif;font-size:6.98px;">SWD</text>
    </g>
    <g transform="matrix(6.12323e-17,-1,1,6.12323e-17,84.4983,325.669)">
        <text x="94.774px" y="44px" style="font-family:'Arial-BoldMT', 'Arial', sans-serif;font-weight:700;font-size:6.98px;">GND</text>
    </g>
    <g transform="matrix(1,0,0,1,64.274,132)">
        <text x="94px" y="44px" style="font-family:'ArialMT', 'Arial', sans-serif;font-size:6.98px;fill:rgb(71,226,93);">AUDIO_OUT_R</text>
    </g>
    <g transform="matrix(1,0,0,1,60,66.9148)">
        <text x="97.882px" y="44px" style="font-family:'ArialMT', 'Arial', sans-serif;font-size:6.98px;">&lt;GP26&gt;</text>
    </g>
    <g transform="matrix(1,0,0,1,60,73.9611)">
        <text x="97.882px" y="44px" style="font-family:'ArialMT', 'Arial', sans-serif;font-size:6.98px;fill:rgb(0,99,255);">nRST</text>
    </g>
    <g transform="matrix(1,0,0,1,60,80.9148)">
        <text x="97.882px" y="44px" style="font-family:'ArialMT', 'Arial', sans-serif;font-size:6.98px;">&lt;GP22&gt;</text>
    </g>
    <g transform="matrix(1,0,0,1,60,9)">
        <text x="97.882px" y="44px" style="font-family:'ArialMT', 'Arial', sans-serif;font-size:6.98px;fill:rgb(223,30,30);">VSYS</text>
    </g>
    <g transform="matrix(1,0,0,1,53.4015,16.6233)">
        <text x="104.491px" y="44px" style="font-family:'Arial-BoldMT', 'Arial', sans-serif;font-weight:700;font-size:6.98px;">GND</text>
    </g>
    <g transform="matrix(1,0,0,1,53.4015,52.6233)">
        <text x="104.491px" y="44px" style="font-family:'Arial-BoldMT', 'Arial', sans-serif;font-weight:700;font-size:6.98px;">GND</text>
    </g>
    <g transform="matrix(1,0,0,1,53.4015,88.6233)">
        <text x="104.491px" y="44px" style="font-family:'Arial-BoldMT', 'Arial', sans-serif;font-weight:700;font-size:6.98px;">GND</text>
    </g>
    <g transform="matrix(1,0,0,1,53.4015,124.623)">
        <text x="104.491px" y="44px" style="font-family:'Arial-BoldMT', 'Arial', sans-serif;font-weight:700;font-size:6.98px;">GND</text>
    </g>
    <g transform="matrix(1,0,0,1,74.3047,139.623)">
        <text x="83.928px" y="44px" style="font-family:'ArialMT', 'Arial', sans-serif;font-size:6.98px;fill:rgb(71,226,93);">AUDIO_OUT_L</text>
    </g>
    <g transform="matrix(1,0,0,1,56.8916,147.092)">
        <text x="101.382px" y="44px" style="font-family:'ArialMT', 'Arial', sans-serif;font-size:6.98px;fill:rgb(27,167,43);">ADC7</text>
    </g>
    <g transform="matrix(1,0,0,1,56.8916,154.092)">
        <text x="101.382px" y="44px" style="font-family:'ArialMT', 'Arial', sans-serif;font-size:6.98px;fill:rgb(27,167,43);">ADC6</text>
    </g>
    <g transform="matrix(1,0,0,1,56.8916,161.092)">
        <text x="101.382px" y="44px" style="font-family:'ArialMT', 'Arial', sans-serif;font-size:6.98px;fill:rgb(27,167,43);">ADC5</text>
    </g>
    <g transform="matrix(1,0,0,1,56.9087,168.092)">
        <text x="101.382px" y="44px" style="font-family:'ArialMT', 'Arial', sans-serif;font-size:6.98px;fill:rgb(27,167,43);">ADC4</text>
    </g>
</svg>
